<svg xmlns="http://www.w3.org/2000/svg" width="1125" viewBox="0 0 1125 1125" height="1125" version="1.0"><defs><clipPath id="a"><path d="M 175.117188 513.011719 L 400.117188 513.011719 L 400.117188 699.011719 L 175.117188 699.011719 Z M 175.117188 513.011719"/></clipPath></defs><path fill="#E78504" d="M 957.863281 451.304688 L 610.28125 374.753906 C 584.113281 368.976562 541.164062 368.976562 514.996094 374.753906 L 167.414062 451.304688 C 141.246094 457.082031 119.769531 483.800781 119.769531 510.703125 L 119.769531 698.816406 C 119.769531 726.261719 141.246094 753.523438 167.414062 759.480469 L 514.996094 837.835938 C 541.164062 843.792969 584.113281 843.792969 610.28125 837.835938 L 957.863281 759.480469 C 984.03125 753.523438 1005.507812 726.261719 1005.507812 698.816406 L 1005.507812 510.703125 C 1005.507812 483.800781 984.03125 457.082031 957.863281 451.304688"/><path fill="#191716" d="M 944.152344 464.203125 L 608.636719 390.320312 C 583.375 384.742188 541.914062 384.742188 516.65625 390.320312 L 181.140625 464.203125 C 155.878906 469.777344 135.148438 495.570312 135.148438 521.53125 L 135.148438 688.027344 C 135.148438 714.515625 155.878906 740.828125 181.140625 746.578125 L 516.65625 822.203125 C 541.914062 827.953125 583.375 827.953125 608.636719 822.203125 L 944.152344 746.578125 C 969.410156 740.828125 990.140625 714.515625 990.140625 688.027344 L 990.140625 521.53125 C 990.140625 495.570312 969.410156 469.777344 944.152344 464.203125"/><g clip-path="url(#a)"><path fill="#E78504" d="M 308.042969 546.691406 L 267.21875 546.691406 C 252.171875 546.691406 239.976562 558.871094 239.976562 573.902344 L 239.976562 583.039062 C 239.976562 591.898438 237.574219 600.605469 233.035156 608.214844 C 232.148438 609.699219 231.898438 611.4375 232.328125 613.113281 C 232.757812 614.777344 233.808594 616.171875 235.289062 617.035156 C 279.058594 642.664062 319.605469 627.882812 339.878906 616.789062 C 341.367188 615.972656 342.433594 614.625 342.878906 612.992188 C 343.324219 611.363281 343.09375 609.667969 342.226562 608.214844 C 337.6875 600.605469 335.285156 591.898438 335.285156 583.039062 L 335.285156 573.902344 C 335.285156 558.871094 323.089844 546.691406 308.042969 546.691406 Z M 369.65625 556.515625 C 368.613281 556.515625 367.582031 556.566406 366.566406 556.671875 C 350.101562 530.449219 320.90625 513.015625 287.628906 513.015625 C 254.355469 513.015625 225.160156 530.449219 208.695312 556.671875 C 207.679688 556.566406 206.648438 556.515625 205.605469 556.515625 C 188.789062 556.515625 175.15625 570.132812 175.15625 586.929688 C 175.15625 600 183.410156 611.140625 194.996094 615.441406 C 196.898438 634.308594 204.445312 651.507812 215.925781 665.335938 L 225.496094 665.335938 L 225.496094 590.179688 C 225.363281 589.882812 225.308594 589.550781 225.351562 589.207031 C 225.449219 588.453125 225.496094 587.683594 225.496094 586.917969 C 225.496094 577.003906 217.421875 568.9375 207.496094 568.9375 C 198.261719 568.9375 190.71875 575.730469 189.628906 584.691406 C 189.632812 584.796875 189.632812 584.90625 189.617188 585.015625 C 189.539062 585.625 189.5 586.246094 189.5 586.867188 C 189.5 594.886719 196.035156 601.410156 204.0625 601.410156 C 211.96875 601.410156 218.34375 595.253906 218.613281 587.378906 C 218.511719 582.078125 214.164062 577.796875 208.832031 577.796875 C 203.503906 577.796875 199.207031 581.964844 199.050781 587.28125 C 199.019531 588.292969 198.171875 589.097656 197.15625 589.0625 C 196.144531 589.035156 195.34375 588.1875 195.375 587.171875 C 195.476562 583.667969 196.921875 580.382812 199.445312 577.933594 C 201.972656 575.476562 205.304688 574.125 208.832031 574.125 C 216.148438 574.125 222.121094 579.984375 222.292969 587.253906 C 222.292969 587.300781 222.296875 587.355469 222.296875 587.40625 C 222.292969 587.414062 222.292969 587.425781 222.292969 587.429688 C 222.292969 587.480469 222.296875 587.527344 222.296875 587.574219 C 222.296875 588.144531 222.261719 588.71875 222.1875 589.28125 C 222.171875 589.425781 222.132812 589.5625 222.085938 589.695312 C 221.480469 593.574219 219.644531 597.144531 216.78125 599.925781 C 213.355469 603.253906 208.839844 605.085938 204.0625 605.085938 C 194.007812 605.085938 185.824219 596.910156 185.824219 586.867188 C 185.824219 586.734375 185.828125 586.605469 185.832031 586.476562 C 185.824219 586.410156 185.824219 586.34375 185.824219 586.277344 C 185.988281 580.628906 188.316406 575.34375 192.378906 571.398438 C 196.445312 567.441406 201.816406 565.265625 207.496094 565.265625 C 213.335938 565.265625 218.824219 567.558594 222.929688 571.714844 C 226.964844 575.800781 229.175781 581.34375 229.175781 587.085938 L 229.175781 607.75 C 229.371094 607.265625 229.601562 606.792969 229.875 606.335938 C 234.078125 599.292969 236.296875 591.238281 236.296875 583.039062 L 236.296875 573.902344 C 236.296875 569.730469 237.117188 565.6875 238.730469 561.878906 C 240.285156 558.199219 242.515625 554.898438 245.355469 552.0625 C 248.195312 549.226562 251.5 546.996094 255.183594 545.445312 C 258.996094 543.832031 263.046875 543.015625 267.21875 543.015625 L 308.042969 543.015625 C 312.21875 543.015625 316.265625 543.832031 320.078125 545.445312 C 323.761719 546.996094 327.066406 549.226562 329.90625 552.0625 C 332.746094 554.898438 334.976562 558.199219 336.53125 561.878906 C 338.144531 565.6875 338.960938 569.730469 338.960938 573.902344 L 338.960938 583.039062 C 338.960938 591.265625 341.265625 599.300781 345.425781 606.40625 C 345.683594 606.839844 345.902344 607.292969 346.089844 607.753906 L 346.089844 586.917969 C 346.089844 581.132812 348.34375 575.695312 352.4375 571.605469 C 356.53125 567.515625 361.976562 565.265625 367.769531 565.265625 C 373.445312 565.265625 378.816406 567.441406 382.882812 571.398438 C 386.945312 575.34375 389.273438 580.628906 389.4375 586.277344 C 389.441406 586.34375 389.4375 586.410156 389.429688 586.476562 C 389.433594 586.605469 389.4375 586.734375 389.4375 586.867188 C 389.4375 596.910156 381.253906 605.085938 371.199219 605.085938 C 366.417969 605.085938 361.902344 603.253906 358.480469 599.925781 C 355.617188 597.144531 353.78125 593.574219 353.175781 589.695312 C 353.125 589.5625 353.089844 589.425781 353.074219 589.28125 C 353.003906 588.71875 352.964844 588.144531 352.964844 587.574219 C 352.964844 587.523438 352.964844 587.480469 352.964844 587.429688 C 352.964844 587.425781 352.964844 587.414062 352.964844 587.40625 C 352.964844 587.355469 352.964844 587.304688 352.96875 587.253906 C 353.140625 579.933594 359.199219 574.039062 366.59375 574.125 C 369.929688 574.164062 373.148438 575.449219 375.59375 577.71875 C 378.253906 580.191406 379.78125 583.5625 379.886719 587.171875 C 379.917969 588.1875 379.117188 589.035156 378.101562 589.0625 C 377.082031 589.09375 376.242188 588.292969 376.210938 587.28125 C 376.054688 581.964844 371.757812 577.796875 366.429688 577.796875 C 361.097656 577.796875 356.75 582.078125 356.648438 587.378906 C 356.917969 595.253906 363.292969 601.410156 371.199219 601.410156 C 379.226562 601.410156 385.761719 594.886719 385.761719 586.867188 C 385.761719 586.246094 385.71875 585.621094 385.644531 585.015625 C 385.628906 584.90625 385.628906 584.796875 385.632812 584.691406 C 384.542969 575.730469 376.996094 568.9375 367.769531 568.9375 C 357.839844 568.9375 349.765625 577.003906 349.765625 586.917969 C 349.765625 587.683594 349.8125 588.453125 349.910156 589.207031 C 349.953125 589.550781 349.898438 589.882812 349.765625 590.179688 L 349.765625 665.335938 L 359.335938 665.335938 C 370.816406 651.507812 378.363281 634.308594 380.265625 615.441406 C 391.851562 611.140625 400.105469 600 400.105469 586.929688 C 400.105469 570.132812 386.472656 556.515625 369.65625 556.515625 Z M 356.121094 669.007812 C 339.109375 687.453125 314.722656 699.011719 287.628906 699.011719 C 260.542969 699.011719 236.152344 687.453125 219.140625 669.007812 L 227.335938 669.007812 C 228.351562 669.007812 229.175781 668.1875 229.175781 667.171875 L 229.175781 615.269531 C 230 617.335938 231.476562 619.0625 233.429688 620.207031 C 246.699219 627.972656 260.535156 632.6875 274.777344 634.316406 C 275.023438 634.34375 275 634.707031 274.753906 634.707031 L 268.808594 634.707031 C 262.75 634.707031 257.054688 637.0625 252.769531 641.339844 C 248.484375 645.621094 246.125 651.3125 246.125 657.363281 L 246.125 667.128906 C 246.125 668.121094 246.902344 668.972656 247.898438 669.007812 C 248.941406 669.042969 249.804688 668.207031 249.804688 667.171875 L 249.804688 657.363281 C 249.804688 646.878906 258.3125 638.382812 268.808594 638.382812 L 306.453125 638.382812 C 316.949219 638.382812 325.457031 646.878906 325.457031 657.363281 L 325.457031 667.128906 C 325.457031 668.121094 326.234375 668.972656 327.230469 669.007812 C 328.273438 669.042969 329.136719 668.207031 329.136719 667.171875 L 329.136719 657.535156 C 329.136719 651.53125 326.828125 645.730469 322.601562 641.453125 C 318.304688 637.105469 312.5625 634.707031 306.453125 634.707031 L 297.601562 634.707031 C 297.351562 634.707031 297.335938 634.34375 297.582031 634.316406 C 297.59375 634.3125 297.609375 634.3125 297.625 634.3125 C 306.0625 633.367188 314.605469 631.371094 323.015625 628.378906 C 329.335938 626.128906 335.605469 623.316406 341.644531 620.011719 C 343.699219 618.886719 345.246094 617.125 346.089844 614.984375 L 346.089844 667.171875 C 346.089844 668.1875 346.910156 669.007812 347.925781 669.007812 L 356.121094 669.007812"/></g><g fill="#FFF"><g><g><path d="M 17.875 -23.859375 L 17.875 0 L 4.328125 0 L 4.328125 -59.453125 L 17.875 -59.453125 L 17.875 -35.75 L 37.046875 -35.75 L 37.046875 -59.453125 L 50.59375 -59.453125 L 50.59375 0 L 37.046875 0 L 37.046875 -23.859375 Z M 17.875 -23.859375" transform="translate(419.915 606.41)"/></g></g></g><g fill="#FFF"><g><g><path d="M 7.8125 -4.390625 C 3.707031 -8.046875 1.65625 -12.726562 1.65625 -18.4375 C 1.65625 -24.15625 3.789062 -28.851562 8.0625 -32.53125 C 12.34375 -36.207031 17.628906 -38.046875 23.921875 -38.046875 C 30.117188 -38.046875 35.34375 -36.195312 39.59375 -32.5 C 43.84375 -28.800781 45.96875 -24.113281 45.96875 -18.4375 C 45.96875 -12.769531 43.890625 -8.097656 39.734375 -4.421875 C 35.585938 -0.753906 30.316406 1.078125 23.921875 1.078125 C 17.296875 1.078125 11.925781 -0.742188 7.8125 -4.390625 Z M 17.6875 -24.71875 C 16.03125 -23.082031 15.203125 -20.988281 15.203125 -18.4375 C 15.203125 -15.894531 15.992188 -13.816406 17.578125 -12.203125 C 19.171875 -10.597656 21.265625 -9.796875 23.859375 -9.796875 C 26.347656 -9.796875 28.394531 -10.613281 30 -12.25 C 31.613281 -13.882812 32.421875 -15.953125 32.421875 -18.453125 C 32.421875 -20.992188 31.59375 -23.082031 29.9375 -24.71875 C 28.28125 -26.351562 26.253906 -27.171875 23.859375 -27.171875 C 21.398438 -27.171875 19.34375 -26.351562 17.6875 -24.71875 Z M 17.6875 -24.71875" transform="translate(474.824 606.41)"/></g></g></g><g fill="#FFF"><g><g><path d="M 16.359375 -36.96875 L 16.359375 -19.390625 C 16.359375 -15.734375 16.910156 -13.132812 18.015625 -11.59375 C 19.117188 -10.0625 20.988281 -9.296875 23.625 -9.296875 C 26.269531 -9.296875 28.144531 -10.0625 29.25 -11.59375 C 30.363281 -13.132812 30.921875 -15.734375 30.921875 -19.390625 L 30.921875 -36.96875 L 43.671875 -36.96875 L 43.671875 -16.28125 C 43.671875 -10.132812 42.070312 -5.703125 38.875 -2.984375 C 35.675781 -0.273438 30.59375 1.078125 23.625 1.078125 C 16.664062 1.078125 11.585938 -0.273438 8.390625 -2.984375 C 5.203125 -5.703125 3.609375 -10.132812 3.609375 -16.28125 L 3.609375 -36.96875 Z M 16.359375 -36.96875" transform="translate(522.455 606.41)"/></g></g></g><g fill="#FFF"><g><g><path d="M 20.390625 -38.046875 C 22.503906 -38.046875 24.59375 -37.804688 26.65625 -37.328125 C 28.726562 -36.847656 30.269531 -36.367188 31.28125 -35.890625 L 32.78125 -35.171875 L 28.609375 -26.8125 C 25.722656 -28.34375 22.984375 -29.109375 20.390625 -29.109375 C 18.953125 -29.109375 17.929688 -28.953125 17.328125 -28.640625 C 16.734375 -28.328125 16.4375 -27.738281 16.4375 -26.875 C 16.4375 -26.6875 16.457031 -26.492188 16.5 -26.296875 C 16.550781 -26.109375 16.644531 -25.929688 16.78125 -25.765625 C 16.925781 -25.597656 17.054688 -25.453125 17.171875 -25.328125 C 17.296875 -25.210938 17.503906 -25.082031 17.796875 -24.9375 C 18.085938 -24.789062 18.316406 -24.679688 18.484375 -24.609375 C 18.648438 -24.535156 18.925781 -24.425781 19.3125 -24.28125 C 19.695312 -24.132812 19.984375 -24.023438 20.171875 -23.953125 C 20.367188 -23.890625 20.691406 -23.785156 21.140625 -23.640625 C 21.597656 -23.492188 21.945312 -23.394531 22.1875 -23.34375 C 23.675781 -22.914062 24.972656 -22.4375 26.078125 -21.90625 C 27.191406 -21.375 28.359375 -20.648438 29.578125 -19.734375 C 30.804688 -18.828125 31.753906 -17.675781 32.421875 -16.28125 C 33.097656 -14.894531 33.4375 -13.3125 33.4375 -11.53125 C 33.4375 -3.125 27.597656 1.078125 15.921875 1.078125 C 13.285156 1.078125 10.773438 0.671875 8.390625 -0.140625 C 6.015625 -0.960938 4.300781 -1.78125 3.25 -2.59375 L 1.65625 -3.890625 L 6.84375 -12.609375 C 7.226562 -12.273438 7.734375 -11.878906 8.359375 -11.421875 C 8.984375 -10.960938 10.113281 -10.335938 11.75 -9.546875 C 13.382812 -8.753906 14.800781 -8.359375 16 -8.359375 C 18.644531 -8.359375 19.96875 -9.25 19.96875 -11.03125 C 19.96875 -11.84375 19.628906 -12.476562 18.953125 -12.9375 C 18.273438 -13.394531 17.128906 -13.910156 15.515625 -14.484375 C 13.910156 -15.054688 12.65625 -15.582031 11.75 -16.0625 C 9.4375 -17.269531 7.609375 -18.628906 6.265625 -20.140625 C 4.921875 -21.648438 4.25 -23.65625 4.25 -26.15625 C 4.25 -29.90625 5.703125 -32.820312 8.609375 -34.90625 C 11.515625 -37 15.441406 -38.046875 20.390625 -38.046875 Z M 20.390625 -38.046875" transform="translate(569.725 606.41)"/></g></g></g><g fill="#FFF"><g><g><path d="M 41.71875 -16.71875 L 14.921875 -16.71875 C 14.921875 -14.125 15.757812 -12.203125 17.4375 -10.953125 C 19.125 -9.703125 20.953125 -9.078125 22.921875 -9.078125 C 24.984375 -9.078125 26.613281 -9.351562 27.8125 -9.90625 C 29.019531 -10.457031 30.390625 -11.550781 31.921875 -13.1875 L 41.140625 -8.578125 C 37.296875 -2.140625 30.910156 1.078125 21.984375 1.078125 C 16.410156 1.078125 11.628906 -0.828125 7.640625 -4.640625 C 3.648438 -8.460938 1.65625 -13.0625 1.65625 -18.4375 C 1.65625 -23.820312 3.648438 -28.4375 7.640625 -32.28125 C 11.628906 -36.125 16.410156 -38.046875 21.984375 -38.046875 C 27.835938 -38.046875 32.601562 -36.351562 36.28125 -32.96875 C 39.957031 -29.582031 41.796875 -24.742188 41.796875 -18.453125 C 41.796875 -17.585938 41.769531 -17.007812 41.71875 -16.71875 Z M 15.28125 -23.78125 L 29.328125 -23.78125 C 29.035156 -25.695312 28.273438 -27.171875 27.046875 -28.203125 C 25.828125 -29.242188 24.257812 -29.765625 22.34375 -29.765625 C 20.226562 -29.765625 18.546875 -29.210938 17.296875 -28.109375 C 16.046875 -27.003906 15.375 -25.5625 15.28125 -23.78125 Z M 15.28125 -23.78125" transform="translate(605.178 606.41)"/></g></g></g><g fill="#FFF"><g><g><path d="M 38.703125 -59.453125 L 38.703125 -47.5625 L 17.875 -47.5625 L 17.875 -35.75 L 37.109375 -35.75 L 37.109375 -23.859375 L 17.875 -23.859375 L 17.875 0 L 4.328125 0 L 4.328125 -59.453125 Z M 38.703125 -59.453125" transform="translate(668.301 606.41)"/></g></g></g><g fill="#FFF"><g><g><path d="M 4.328125 0 L 4.328125 -61.96875 L 17.078125 -61.96875 L 17.078125 0 Z M 4.328125 0" transform="translate(709.159 606.41)"/></g></g></g><g fill="#FFF"><g><g><path d="M 5.546875 -57.578125 C 7.035156 -59.066406 8.8125 -59.8125 10.875 -59.8125 C 12.945312 -59.8125 14.726562 -59.066406 16.21875 -57.578125 C 17.707031 -56.085938 18.453125 -54.304688 18.453125 -52.234375 C 18.453125 -50.171875 17.707031 -48.394531 16.21875 -46.90625 C 14.726562 -45.414062 12.945312 -44.671875 10.875 -44.671875 C 8.8125 -44.671875 7.035156 -45.414062 5.546875 -46.90625 C 4.054688 -48.394531 3.3125 -50.171875 3.3125 -52.234375 C 3.3125 -54.304688 4.054688 -56.085938 5.546875 -57.578125 Z M 4.328125 -36.96875 L 4.328125 0 L 17.078125 0 L 17.078125 -36.96875 Z M 4.328125 -36.96875" transform="translate(730.56 606.41)"/></g></g></g><g fill="#FFF"><g><g><path d="M 42.375 -32.390625 C 45.832031 -28.617188 47.5625 -23.992188 47.5625 -18.515625 C 47.5625 -13.046875 45.832031 -8.410156 42.375 -4.609375 C 38.914062 -0.816406 34.519531 1.078125 29.1875 1.078125 C 24.28125 1.078125 20.242188 -0.457031 17.078125 -3.53125 L 17.078125 18.734375 L 4.328125 18.734375 L 4.328125 -36.96875 L 16.9375 -36.96875 L 16.9375 -32.78125 L 17.078125 -32.78125 C 20.242188 -36.289062 24.28125 -38.046875 29.1875 -38.046875 C 34.519531 -38.046875 38.914062 -36.160156 42.375 -32.390625 Z M 31.53125 -12.25 C 33.1875 -13.882812 34.015625 -15.972656 34.015625 -18.515625 C 34.015625 -21.066406 33.21875 -23.144531 31.625 -24.75 C 30.039062 -26.363281 27.953125 -27.171875 25.359375 -27.171875 C 22.867188 -27.171875 20.816406 -26.351562 19.203125 -24.71875 C 17.597656 -23.082031 16.796875 -21.015625 16.796875 -18.515625 C 16.796875 -15.972656 17.625 -13.882812 19.28125 -12.25 C 20.9375 -10.613281 22.960938 -9.796875 25.359375 -9.796875 C 27.816406 -9.796875 29.875 -10.613281 31.53125 -12.25 Z M 31.53125 -12.25" transform="translate(752.322 606.41)"/></g></g></g><g fill="#FFF"><g><g><path d="M 42.375 -32.390625 C 45.832031 -28.617188 47.5625 -23.992188 47.5625 -18.515625 C 47.5625 -13.046875 45.832031 -8.410156 42.375 -4.609375 C 38.914062 -0.816406 34.519531 1.078125 29.1875 1.078125 C 24.28125 1.078125 20.242188 -0.457031 17.078125 -3.53125 L 17.078125 18.734375 L 4.328125 18.734375 L 4.328125 -36.96875 L 16.9375 -36.96875 L 16.9375 -32.78125 L 17.078125 -32.78125 C 20.242188 -36.289062 24.28125 -38.046875 29.1875 -38.046875 C 34.519531 -38.046875 38.914062 -36.160156 42.375 -32.390625 Z M 31.53125 -12.25 C 33.1875 -13.882812 34.015625 -15.972656 34.015625 -18.515625 C 34.015625 -21.066406 33.21875 -23.144531 31.625 -24.75 C 30.039062 -26.363281 27.953125 -27.171875 25.359375 -27.171875 C 22.867188 -27.171875 20.816406 -26.351562 19.203125 -24.71875 C 17.597656 -23.082031 16.796875 -21.015625 16.796875 -18.515625 C 16.796875 -15.972656 17.625 -13.882812 19.28125 -12.25 C 20.9375 -10.613281 22.960938 -9.796875 25.359375 -9.796875 C 27.816406 -9.796875 29.875 -10.613281 31.53125 -12.25 Z M 31.53125 -12.25" transform="translate(801.538 606.41)"/></g></g></g><g fill="#FFF"><g><g><path d="M 41.71875 -16.71875 L 14.921875 -16.71875 C 14.921875 -14.125 15.757812 -12.203125 17.4375 -10.953125 C 19.125 -9.703125 20.953125 -9.078125 22.921875 -9.078125 C 24.984375 -9.078125 26.613281 -9.351562 27.8125 -9.90625 C 29.019531 -10.457031 30.390625 -11.550781 31.921875 -13.1875 L 41.140625 -8.578125 C 37.296875 -2.140625 30.910156 1.078125 21.984375 1.078125 C 16.410156 1.078125 11.628906 -0.828125 7.640625 -4.640625 C 3.648438 -8.460938 1.65625 -13.0625 1.65625 -18.4375 C 1.65625 -23.820312 3.648438 -28.4375 7.640625 -32.28125 C 11.628906 -36.125 16.410156 -38.046875 21.984375 -38.046875 C 27.835938 -38.046875 32.601562 -36.351562 36.28125 -32.96875 C 39.957031 -29.582031 41.796875 -24.742188 41.796875 -18.453125 C 41.796875 -17.585938 41.769531 -17.007812 41.71875 -16.71875 Z M 15.28125 -23.78125 L 29.328125 -23.78125 C 29.035156 -25.695312 28.273438 -27.171875 27.046875 -28.203125 C 25.828125 -29.242188 24.257812 -29.765625 22.34375 -29.765625 C 20.226562 -29.765625 18.546875 -29.210938 17.296875 -28.109375 C 16.046875 -27.003906 15.375 -25.5625 15.28125 -23.78125 Z M 15.28125 -23.78125" transform="translate(850.754 606.41)"/></g></g></g><g fill="#FFF"><g><g><path d="M 4.328125 0 L 4.328125 -36.96875 L 17.078125 -36.96875 L 17.078125 -31.640625 L 17.21875 -31.640625 C 17.3125 -31.828125 17.46875 -32.0625 17.6875 -32.34375 C 17.90625 -32.632812 18.375 -33.140625 19.09375 -33.859375 C 19.8125 -34.585938 20.578125 -35.238281 21.390625 -35.8125 C 22.210938 -36.394531 23.269531 -36.910156 24.5625 -37.359375 C 25.863281 -37.816406 27.1875 -38.046875 28.53125 -38.046875 C 29.925781 -38.046875 31.296875 -37.851562 32.640625 -37.46875 C 33.984375 -37.082031 34.96875 -36.695312 35.59375 -36.3125 L 36.609375 -35.75 L 31.28125 -24.9375 C 29.6875 -26.28125 27.472656 -26.953125 24.640625 -26.953125 C 23.109375 -26.953125 21.789062 -26.613281 20.6875 -25.9375 C 19.582031 -25.269531 18.800781 -24.453125 18.34375 -23.484375 C 17.882812 -22.523438 17.554688 -21.707031 17.359375 -21.03125 C 17.171875 -20.363281 17.078125 -19.835938 17.078125 -19.453125 L 17.078125 0 Z M 4.328125 0" transform="translate(894.205 606.41)"/></g></g></g><g fill="#E78504"><g><g><path d="M 15.8125 -24.296875 L 15.8125 -19.4375 L 7.296875 -19.4375 L 7.296875 -14.609375 L 15.171875 -14.609375 L 15.171875 -9.75 L 7.296875 -9.75 L 7.296875 0 L 1.765625 0 L 1.765625 -24.296875 Z M 15.8125 -24.296875" transform="translate(509.54 656.744)"/></g></g></g><g fill="#E78504"><g><g><path d="M 6.6875 -15.109375 L 6.6875 -7.921875 C 6.6875 -6.429688 6.910156 -5.367188 7.359375 -4.734375 C 7.816406 -4.109375 8.582031 -3.796875 9.65625 -3.796875 C 10.738281 -3.796875 11.503906 -4.109375 11.953125 -4.734375 C 12.410156 -5.367188 12.640625 -6.429688 12.640625 -7.921875 L 12.640625 -15.109375 L 17.84375 -15.109375 L 17.84375 -6.65625 C 17.84375 -4.144531 17.191406 -2.332031 15.890625 -1.21875 C 14.585938 -0.113281 12.507812 0.4375 9.65625 0.4375 C 6.8125 0.4375 4.734375 -0.113281 3.421875 -1.21875 C 2.117188 -2.332031 1.46875 -4.144531 1.46875 -6.65625 L 1.46875 -15.109375 Z M 6.6875 -15.109375" transform="translate(549.802 656.744)"/></g></g></g><g fill="#E78504"><g><g><path d="M 1.765625 0 L 1.765625 -15.109375 L 6.984375 -15.109375 L 6.984375 -12.9375 L 7.046875 -12.9375 C 7.078125 -13.007812 7.132812 -13.101562 7.21875 -13.21875 C 7.3125 -13.34375 7.503906 -13.550781 7.796875 -13.84375 C 8.097656 -14.132812 8.414062 -14.394531 8.75 -14.625 C 9.082031 -14.863281 9.515625 -15.078125 10.046875 -15.265625 C 10.578125 -15.453125 11.113281 -15.546875 11.65625 -15.546875 C 12.226562 -15.546875 12.789062 -15.46875 13.34375 -15.3125 C 13.894531 -15.15625 14.296875 -15 14.546875 -14.84375 L 14.96875 -14.609375 L 12.78125 -10.1875 C 12.132812 -10.738281 11.234375 -11.015625 10.078125 -11.015625 C 9.441406 -11.015625 8.898438 -10.875 8.453125 -10.59375 C 8.003906 -10.320312 7.6875 -9.988281 7.5 -9.59375 C 7.3125 -9.207031 7.175781 -8.875 7.09375 -8.59375 C 7.019531 -8.320312 6.984375 -8.109375 6.984375 -7.953125 L 6.984375 0 Z M 1.765625 0" transform="translate(592.684 656.744)"/></g></g></g><g fill="#E78504"><g><g><path d="M 1.765625 0 L 1.765625 -15.109375 L 6.984375 -15.109375 L 6.984375 -13.515625 L 7.046875 -13.515625 C 8.398438 -14.867188 9.84375 -15.546875 11.375 -15.546875 C 12.113281 -15.546875 12.851562 -15.445312 13.59375 -15.25 C 14.332031 -15.0625 15.039062 -14.757812 15.71875 -14.34375 C 16.394531 -13.925781 16.941406 -13.335938 17.359375 -12.578125 C 17.785156 -11.828125 18 -10.953125 18 -9.953125 L 18 0 L 12.78125 0 L 12.78125 -8.546875 C 12.78125 -9.328125 12.53125 -10.007812 12.03125 -10.59375 C 11.53125 -11.1875 10.878906 -11.484375 10.078125 -11.484375 C 9.285156 -11.484375 8.570312 -11.175781 7.9375 -10.5625 C 7.300781 -9.957031 6.984375 -9.285156 6.984375 -8.546875 L 6.984375 0 Z M 1.765625 0" transform="translate(630.913 656.744)"/></g></g></g><g fill="#E78504"><g><g><path d="M 2.265625 -23.53125 C 2.878906 -24.144531 3.609375 -24.453125 4.453125 -24.453125 C 5.296875 -24.453125 6.019531 -24.144531 6.625 -23.53125 C 7.238281 -22.925781 7.546875 -22.203125 7.546875 -21.359375 C 7.546875 -20.515625 7.238281 -19.785156 6.625 -19.171875 C 6.019531 -18.566406 5.296875 -18.265625 4.453125 -18.265625 C 3.609375 -18.265625 2.878906 -18.566406 2.265625 -19.171875 C 1.660156 -19.785156 1.359375 -20.515625 1.359375 -21.359375 C 1.359375 -22.203125 1.660156 -22.925781 2.265625 -23.53125 Z M 1.765625 -15.109375 L 1.765625 0 L 6.984375 0 L 6.984375 -15.109375 Z M 1.765625 -15.109375" transform="translate(673.942 656.744)"/></g></g></g><g fill="#E78504"><g><g><path d="M 2.65625 -15.109375 L 2.65625 -20.734375 L 7.859375 -20.734375 L 7.859375 -15.109375 L 11.046875 -15.109375 L 11.046875 -11.140625 L 7.859375 -11.140625 L 7.859375 -6.328125 C 7.859375 -4.929688 8.253906 -4.234375 9.046875 -4.234375 C 9.242188 -4.234375 9.445312 -4.273438 9.65625 -4.359375 C 9.875 -4.441406 10.039062 -4.519531 10.15625 -4.59375 L 10.34375 -4.71875 L 11.640625 -0.5 C 10.515625 0.125 9.238281 0.4375 7.8125 0.4375 C 6.820312 0.4375 5.972656 0.265625 5.265625 -0.078125 C 4.566406 -0.421875 4.035156 -0.878906 3.671875 -1.453125 C 3.304688 -2.035156 3.046875 -2.644531 2.890625 -3.28125 C 2.734375 -3.914062 2.65625 -4.597656 2.65625 -5.328125 L 2.65625 -11.140625 L 0.46875 -11.140625 L 0.46875 -15.109375 Z M 2.65625 -15.109375" transform="translate(706.399 656.744)"/></g></g></g><g fill="#E78504"><g><g><path d="M 6.6875 -15.109375 L 6.6875 -7.921875 C 6.6875 -6.429688 6.910156 -5.367188 7.359375 -4.734375 C 7.816406 -4.109375 8.582031 -3.796875 9.65625 -3.796875 C 10.738281 -3.796875 11.503906 -4.109375 11.953125 -4.734375 C 12.410156 -5.367188 12.640625 -6.429688 12.640625 -7.921875 L 12.640625 -15.109375 L 17.84375 -15.109375 L 17.84375 -6.65625 C 17.84375 -4.144531 17.191406 -2.332031 15.890625 -1.21875 C 14.585938 -0.113281 12.507812 0.4375 9.65625 0.4375 C 6.8125 0.4375 4.734375 -0.113281 3.421875 -1.21875 C 2.117188 -2.332031 1.46875 -4.144531 1.46875 -6.65625 L 1.46875 -15.109375 Z M 6.6875 -15.109375" transform="translate(741.595 656.744)"/></g></g></g><g fill="#E78504"><g><g><path d="M 1.765625 0 L 1.765625 -15.109375 L 6.984375 -15.109375 L 6.984375 -12.9375 L 7.046875 -12.9375 C 7.078125 -13.007812 7.132812 -13.101562 7.21875 -13.21875 C 7.3125 -13.34375 7.503906 -13.550781 7.796875 -13.84375 C 8.097656 -14.132812 8.414062 -14.394531 8.75 -14.625 C 9.082031 -14.863281 9.515625 -15.078125 10.046875 -15.265625 C 10.578125 -15.453125 11.113281 -15.546875 11.65625 -15.546875 C 12.226562 -15.546875 12.789062 -15.46875 13.34375 -15.3125 C 13.894531 -15.15625 14.296875 -15 14.546875 -14.84375 L 14.96875 -14.609375 L 12.78125 -10.1875 C 12.132812 -10.738281 11.234375 -11.015625 10.078125 -11.015625 C 9.441406 -11.015625 8.898438 -10.875 8.453125 -10.59375 C 8.003906 -10.320312 7.6875 -9.988281 7.5 -9.59375 C 7.3125 -9.207031 7.175781 -8.875 7.09375 -8.59375 C 7.019531 -8.320312 6.984375 -8.109375 6.984375 -7.953125 L 6.984375 0 Z M 1.765625 0" transform="translate(784.476 656.744)"/></g></g></g><g fill="#E78504"><g><g><path d="M 17.046875 -6.828125 L 6.09375 -6.828125 C 6.09375 -5.773438 6.4375 -4.992188 7.125 -4.484375 C 7.8125 -3.972656 8.554688 -3.71875 9.359375 -3.71875 C 10.203125 -3.71875 10.867188 -3.828125 11.359375 -4.046875 C 11.859375 -4.273438 12.421875 -4.722656 13.046875 -5.390625 L 16.8125 -3.5 C 15.25 -0.875 12.640625 0.4375 8.984375 0.4375 C 6.703125 0.4375 4.742188 -0.335938 3.109375 -1.890625 C 1.484375 -3.453125 0.671875 -5.332031 0.671875 -7.53125 C 0.671875 -9.738281 1.484375 -11.625 3.109375 -13.1875 C 4.742188 -14.757812 6.703125 -15.546875 8.984375 -15.546875 C 11.378906 -15.546875 13.328125 -14.851562 14.828125 -13.46875 C 16.328125 -12.082031 17.078125 -10.109375 17.078125 -7.546875 C 17.078125 -7.191406 17.066406 -6.953125 17.046875 -6.828125 Z M 6.25 -9.71875 L 11.984375 -9.71875 C 11.867188 -10.5 11.5625 -11.101562 11.0625 -11.53125 C 10.5625 -11.957031 9.914062 -12.171875 9.125 -12.171875 C 8.257812 -12.171875 7.570312 -11.941406 7.0625 -11.484375 C 6.550781 -11.035156 6.28125 -10.445312 6.25 -9.71875 Z M 6.25 -9.71875" transform="translate(822.705 656.744)"/></g></g></g></svg>